<svg width="452" height="492" xmlns="http://www.w3.org/2000/svg" xmlns:xlink="http://www.w3.org/1999/xlink" overflow="hidden"><defs><clipPath id="clip0"><rect x="655" y="78" width="452" height="492"/></clipPath></defs><g clip-path="url(#clip0)" transform="translate(-655 -78)"><path d="M785 568 854.833 160 901.167 160 971 568 785 568Z" fill="#D9D9D9" fill-rule="evenodd"/><rect x="831" y="87" width="23" height="73" fill="#5B8AFB"/><path d="M656.5 568.816 656.5 563.345 657.869 563.345 657.869 568.816 656.5 568.816ZM656.5 559.241 656.5 553.769 657.869 553.769 657.869 559.241 656.5 559.241ZM656.5 549.666 656.5 544.194 657.869 544.194 657.869 549.666 656.5 549.666ZM656.5 540.09 656.5 534.619 657.869 534.619 657.869 540.09 656.5 540.09ZM656.5 530.515 656.5 525.044 657.869 525.044 657.869 530.515 656.5 530.515ZM656.5 520.94 656.5 515.468 657.869 515.468 657.869 520.94 656.5 520.94ZM656.5 511.365 656.5 505.893 657.869 505.893 657.869 511.365 656.5 511.365ZM656.5 501.789 656.5 496.318 657.869 496.318 657.869 501.789 656.5 501.789ZM656.5 492.214 656.5 486.657 657.869 486.657 657.869 492.214 656.5 492.214ZM656.5 482.553 656.5 477.082 657.869 477.082 657.869 482.553 656.5 482.553ZM656.5 472.978 656.5 467.507 657.869 467.507 657.869 472.978 656.5 472.978ZM656.5 463.403 656.5 457.931 657.869 457.931 657.869 463.403 656.5 463.403ZM656.5 453.828 656.5 448.356 657.869 448.356 657.869 453.828 656.5 453.828ZM656.5 444.252 656.5 438.781 657.869 438.781 657.869 444.252 656.5 444.252ZM656.5 434.677 656.5 429.206 657.869 429.206 657.869 434.677 656.5 434.677ZM656.5 425.102 656.5 419.63 657.869 419.63 657.869 425.102 656.5 425.102ZM656.5 415.527 656.5 410.055 657.869 410.055 657.869 415.527 656.5 415.527ZM656.5 405.951 656.5 400.394 657.869 400.394 657.869 405.951 656.5 405.951ZM656.5 396.291 656.5 390.819 657.869 390.819 657.869 396.291 656.5 396.291ZM656.5 386.715 656.5 381.244 657.869 381.244 657.869 386.715 656.5 386.715ZM656.5 377.14 656.5 371.669 657.869 371.669 657.869 377.14 656.5 377.14ZM656.5 367.565 656.5 362.093 657.869 362.093 657.869 367.565 656.5 367.565ZM656.5 357.99 656.5 352.518 657.869 352.518 657.869 357.99 656.5 357.99ZM656.5 348.414 656.5 342.943 657.869 342.943 657.869 348.414 656.5 348.414ZM656.5 338.839 656.5 333.368 657.869 333.368 657.869 338.839 656.5 338.839ZM656.5 329.264 656.5 323.792 657.869 323.792 657.869 329.264 656.5 329.264ZM656.5 319.689 656.5 314.132 657.869 314.132 657.869 319.689 656.5 319.689ZM656.5 310.028 656.5 304.556 657.869 304.556 657.869 310.028 656.5 310.028ZM656.5 300.453 656.5 294.981 657.869 294.981 657.869 300.453 656.5 300.453ZM656.5 290.877 656.5 285.406 657.869 285.406 657.869 290.877 656.5 290.877ZM656.5 281.302 656.5 275.831 657.869 275.831 657.869 281.302 656.5 281.302ZM656.5 271.727 656.5 266.255 657.869 266.255 657.869 271.727 656.5 271.727ZM656.5 262.152 656.5 256.68 657.869 256.68 657.869 262.152 656.5 262.152ZM656.5 252.576 656.5 247.105 657.869 247.105 657.869 252.576 656.5 252.576ZM656.5 243.001 656.5 237.53 657.869 237.53 657.869 243.001 656.5 243.001ZM656.5 233.426 656.5 227.869 657.869 227.869 657.869 233.426 656.5 233.426ZM656.5 223.765 656.5 218.294 657.869 218.294 657.869 223.765 656.5 223.765ZM656.5 214.19 656.5 208.718 657.869 208.718 657.869 214.19 656.5 214.19ZM656.5 204.615 656.5 199.143 657.869 199.143 657.869 204.615 656.5 204.615ZM656.5 195.039 656.5 189.568 657.869 189.568 657.869 195.039 656.5 195.039ZM656.5 185.464 656.5 179.993 657.869 179.993 657.869 185.464 656.5 185.464ZM656.5 175.889 656.5 170.417 657.869 170.417 657.869 175.889 656.5 175.889ZM656.5 166.314 656.5 161.184C656.5 160.842 656.842 160.5 657.185 160.5L657.613 160.5 657.613 161.868 657.185 161.868 657.869 161.184 657.869 166.314 656.5 166.314ZM661.72 160.5 667.197 160.5 667.197 161.868 661.72 161.868 661.72 160.5ZM671.305 160.5 676.782 160.5 676.782 161.868 671.305 161.868 671.305 160.5ZM680.975 160.5 686.452 160.5 686.452 161.868 680.975 161.868 680.975 160.5ZM690.56 160.5 696.037 160.5 696.037 161.868 690.56 161.868 690.56 160.5ZM700.144 160.5 705.621 160.5 705.621 161.868 700.144 161.868 700.144 160.5ZM709.729 160.5 715.206 160.5 715.206 161.868 709.729 161.868 709.729 160.5ZM719.314 160.5 724.79 160.5 724.79 161.868 719.314 161.868 719.314 160.5ZM728.898 160.5 734.375 160.5 734.375 161.868 728.898 161.868 728.898 160.5ZM738.483 160.5 743.96 160.5 743.96 161.868 738.483 161.868 738.483 160.5ZM748.067 160.5 753.544 160.5 753.544 161.868 748.067 161.868 748.067 160.5ZM757.652 160.5 763.129 160.5 763.129 161.868 757.652 161.868 757.652 160.5ZM767.322 160.5 772.799 160.5 772.799 161.868 767.322 161.868 767.322 160.5ZM776.907 160.5 782.384 160.5 782.384 161.868 776.907 161.868 776.907 160.5ZM786.491 160.5 791.968 160.5 791.968 161.868 786.491 161.868 786.491 160.5ZM796.076 160.5 801.553 160.5 801.553 161.868 796.076 161.868 796.076 160.5ZM805.661 160.5 811.138 160.5 811.138 161.868 805.661 161.868 805.661 160.5ZM815.245 160.5 820.722 160.5 820.722 161.868 815.245 161.868 815.245 160.5ZM824.83 160.5 830.307 160.5 830.307 161.868 824.83 161.868 824.83 160.5ZM834.414 160.5 839.891 160.5 839.891 161.868 834.414 161.868 834.414 160.5ZM843.999 160.5 849.476 160.5 849.476 161.868 843.999 161.868 843.999 160.5ZM853.669 160.5 859.146 160.5 859.146 161.868 853.669 161.868 853.669 160.5ZM863.254 160.5 868.731 160.5 868.731 161.868 863.254 161.868 863.254 160.5ZM872.839 160.5 878.315 160.5 878.315 161.868 872.839 161.868 872.839 160.5ZM882.423 160.5 887.9 160.5 887.9 161.868 882.423 161.868 882.423 160.5ZM892.008 160.5 897.485 160.5 897.485 161.868 892.008 161.868 892.008 160.5ZM901.592 160.5 907.069 160.5 907.069 161.868 901.592 161.868 901.592 160.5ZM911.177 160.5 916.654 160.5 916.654 161.868 911.177 161.868 911.177 160.5ZM920.762 160.5 926.239 160.5 926.239 161.868 920.762 161.868 920.762 160.5ZM930.346 160.5 935.823 160.5 935.823 161.868 930.346 161.868 930.346 160.5ZM940.016 160.5 945.493 160.5 945.493 161.868 940.016 161.868 940.016 160.5ZM949.601 160.5 955.078 160.5 955.078 161.868 949.601 161.868 949.601 160.5ZM959.186 160.5 964.663 160.5 964.663 161.868 959.186 161.868 959.186 160.5ZM968.77 160.5 974.247 160.5 974.247 161.868 968.77 161.868 968.77 160.5ZM978.355 160.5 983.832 160.5 983.832 161.868 978.355 161.868 978.355 160.5ZM987.939 160.5 993.416 160.5 993.416 161.868 987.939 161.868 987.939 160.5ZM997.524 160.5 1003 160.5 1003 161.868 997.524 161.868 997.524 160.5ZM1007.11 160.5 1012.59 160.5 1012.59 161.868 1007.11 161.868 1007.11 160.5ZM1016.69 160.5 1022.17 160.5 1022.17 161.868 1016.69 161.868 1016.69 160.5ZM1026.36 160.5 1031.84 160.5 1031.84 161.868 1026.36 161.868 1026.36 160.5ZM1035.95 160.5 1041.43 160.5 1041.43 161.868 1035.95 161.868 1035.95 160.5ZM1045.53 160.5 1051.01 160.5 1051.01 161.868 1045.53 161.868 1045.53 160.5ZM1055.12 160.5 1060.59 160.5 1060.59 161.868 1055.12 161.868 1055.12 160.5ZM1064.7 160.5 1070.18 160.5 1070.18 161.868 1064.7 161.868 1064.7 160.5ZM1074.29 160.5 1079.76 160.5 1079.76 161.868 1074.29 161.868 1074.29 160.5ZM1083.87 160.5 1089.35 160.5 1089.35 161.868 1083.87 161.868 1083.87 160.5ZM1093.46 160.5 1098.93 160.5 1098.93 161.868 1093.46 161.868 1093.46 160.5ZM1101.5 163.407 1101.5 168.964 1100.13 168.964 1100.13 163.407 1101.5 163.407ZM1101.5 173.068 1101.5 178.539 1100.13 178.539 1100.13 173.068 1101.5 173.068ZM1101.5 182.643 1101.5 188.114 1100.13 188.114 1100.13 182.643 1101.5 182.643ZM1101.5 192.218 1101.5 197.69 1100.13 197.69 1100.13 192.218 1101.5 192.218ZM1101.5 201.793 1101.5 207.265 1100.13 207.265 1100.13 201.793 1101.5 201.793ZM1101.5 211.369 1101.5 216.84 1100.13 216.84 1100.13 211.369 1101.5 211.369ZM1101.5 220.944 1101.5 226.415 1100.13 226.415 1100.13 220.944 1101.5 220.944ZM1101.5 230.519 1101.5 235.991 1100.13 235.991 1100.13 230.519 1101.5 230.519ZM1101.5 240.094 1101.5 245.566 1100.13 245.566 1100.13 240.094 1101.5 240.094ZM1101.5 249.67 1101.5 255.227 1100.13 255.227 1100.13 249.67 1101.5 249.67ZM1101.5 259.33 1101.5 264.802 1100.13 264.802 1100.13 259.33 1101.5 259.33ZM1101.5 268.906 1101.5 274.377 1100.13 274.377 1100.13 268.906 1101.5 268.906ZM1101.5 278.481 1101.5 283.952 1100.13 283.952 1100.13 278.481 1101.5 278.481ZM1101.5 288.056 1101.5 293.528 1100.13 293.528 1100.13 288.056 1101.5 288.056ZM1101.5 297.631 1101.5 303.103 1100.13 303.103 1100.13 297.631 1101.5 297.631ZM1101.5 307.207 1101.5 312.678 1100.13 312.678 1100.13 307.207 1101.5 307.207ZM1101.5 316.782 1101.5 322.253 1100.13 322.253 1100.13 316.782 1101.5 316.782ZM1101.5 326.357 1101.5 331.829 1100.13 331.829 1100.13 326.357 1101.5 326.357ZM1101.5 335.932 1101.5 341.489 1100.13 341.489 1100.13 335.932 1101.5 335.932ZM1101.5 345.593 1101.5 351.065 1100.13 351.065 1100.13 345.593 1101.5 345.593ZM1101.5 355.168 1101.5 360.64 1100.13 360.64 1100.13 355.168 1101.5 355.168ZM1101.5 364.744 1101.5 370.215 1100.13 370.215 1100.13 364.744 1101.5 364.744ZM1101.5 374.319 1101.5 379.79 1100.13 379.79 1100.13 374.319 1101.5 374.319ZM1101.5 383.894 1101.5 389.366 1100.13 389.366 1100.13 383.894 1101.5 383.894ZM1101.5 393.469 1101.5 398.941 1100.13 398.941 1100.13 393.469 1101.5 393.469ZM1101.5 403.045 1101.5 408.516 1100.13 408.516 1100.13 403.045 1101.5 403.045ZM1101.5 412.62 1101.5 418.091 1100.13 418.091 1100.13 412.62 1101.5 412.62ZM1101.5 422.195 1101.5 427.752 1100.13 427.752 1100.13 422.195 1101.5 422.195ZM1101.5 431.856 1101.5 437.327 1100.13 437.327 1100.13 431.856 1101.5 431.856ZM1101.5 441.431 1101.5 446.903 1100.13 446.903 1100.13 441.431 1101.5 441.431ZM1101.5 451.006 1101.5 456.478 1100.13 456.478 1100.13 451.006 1101.5 451.006ZM1101.5 460.582 1101.5 466.053 1100.13 466.053 1100.13 460.582 1101.5 460.582ZM1101.5 470.157 1101.5 475.628 1100.13 475.628 1100.13 470.157 1101.5 470.157ZM1101.5 479.732 1101.5 485.204 1100.13 485.204 1100.13 479.732 1101.5 479.732ZM1101.5 489.307 1101.5 494.779 1100.13 494.779 1100.13 489.307 1101.5 489.307ZM1101.5 498.883 1101.5 504.354 1100.13 504.354 1100.13 498.883 1101.5 498.883ZM1101.5 508.458 1101.5 514.015 1100.13 514.015 1100.13 508.458 1101.5 508.458ZM1101.5 518.119 1101.5 523.59 1100.13 523.59 1100.13 518.119 1101.5 518.119ZM1101.5 527.694 1101.5 533.165 1100.13 533.165 1100.13 527.694 1101.5 527.694ZM1101.5 537.269 1101.5 542.741 1100.13 542.741 1100.13 537.269 1101.5 537.269ZM1101.5 546.844 1101.5 552.316 1100.13 552.316 1100.13 546.844 1101.5 546.844ZM1101.5 556.42 1101.5 561.891 1100.13 561.891 1100.13 556.42 1101.5 556.42ZM1101.5 565.995 1101.5 568.816C1101.5 569.244 1101.24 569.5 1100.82 569.5L1098.25 569.5 1098.25 568.132 1100.82 568.132 1100.13 568.816 1100.13 565.995 1101.5 565.995ZM1094.14 569.5 1088.66 569.5 1088.66 568.132 1094.14 568.132 1094.14 569.5ZM1084.56 569.5 1078.99 569.5 1078.99 568.132 1084.56 568.132 1084.56 569.5ZM1074.89 569.5 1069.41 569.5 1069.41 568.132 1074.89 568.132 1074.89 569.5ZM1065.3 569.5 1059.82 569.5 1059.82 568.132 1065.3 568.132 1065.3 569.5ZM1055.72 569.5 1050.24 569.5 1050.24 568.132 1055.72 568.132 1055.72 569.5ZM1046.13 569.5 1040.65 569.5 1040.65 568.132 1046.13 568.132 1046.13 569.5ZM1036.55 569.5 1031.07 569.5 1031.07 568.132 1036.55 568.132 1036.55 569.5ZM1026.96 569.5 1021.49 569.5 1021.49 568.132 1026.96 568.132 1026.96 569.5ZM1017.38 569.5 1011.9 569.5 1011.9 568.132 1017.38 568.132 1017.38 569.5ZM1007.79 569.5 1002.32 569.5 1002.32 568.132 1007.79 568.132 1007.79 569.5ZM998.209 569.5 992.646 569.5 992.646 568.132 998.209 568.132 998.209 569.5ZM988.539 569.5 983.062 569.5 983.062 568.132 988.539 568.132 988.539 569.5ZM978.954 569.5 973.477 569.5 973.477 568.132 978.954 568.132 978.954 569.5ZM969.369 569.5 963.892 569.5 963.892 568.132 969.369 568.132 969.369 569.5ZM959.785 569.5 954.308 569.5 954.308 568.132 959.785 568.132 959.785 569.5ZM950.2 569.5 944.723 569.5 944.723 568.132 950.2 568.132 950.2 569.5ZM940.615 569.5 935.138 569.5 935.138 568.132 940.615 568.132 940.615 569.5ZM931.031 569.5 925.554 569.5 925.554 568.132 931.031 568.132 931.031 569.5ZM921.446 569.5 915.969 569.5 915.969 568.132 921.446 568.132 921.446 569.5ZM911.776 569.5 906.299 569.5 906.299 568.132 911.776 568.132 911.776 569.5ZM902.191 569.5 896.714 569.5 896.714 568.132 902.191 568.132 902.191 569.5ZM892.607 569.5 887.13 569.5 887.13 568.132 892.607 568.132 892.607 569.5ZM883.022 569.5 877.545 569.5 877.545 568.132 883.022 568.132 883.022 569.5ZM873.438 569.5 867.961 569.5 867.961 568.132 873.438 568.132 873.438 569.5ZM863.853 569.5 858.376 569.5 858.376 568.132 863.853 568.132 863.853 569.5ZM854.268 569.5 848.791 569.5 848.791 568.132 854.268 568.132 854.268 569.5ZM844.684 569.5 839.207 569.5 839.207 568.132 844.684 568.132 844.684 569.5ZM835.099 569.5 829.622 569.5 829.622 568.132 835.099 568.132 835.099 569.5ZM825.429 569.5 819.952 569.5 819.952 568.132 825.429 568.132 825.429 569.5ZM815.844 569.5 810.367 569.5 810.367 568.132 815.844 568.132 815.844 569.5ZM806.26 569.5 800.783 569.5 800.783 568.132 806.26 568.132 806.26 569.5ZM796.675 569.5 791.198 569.5 791.198 568.132 796.675 568.132 796.675 569.5ZM787.09 569.5 781.614 569.5 781.614 568.132 787.09 568.132 787.09 569.5ZM777.506 569.5 772.029 569.5 772.029 568.132 777.506 568.132 777.506 569.5ZM767.921 569.5 762.444 569.5 762.444 568.132 767.921 568.132 767.921 569.5ZM758.337 569.5 752.86 569.5 752.86 568.132 758.337 568.132 758.337 569.5ZM748.752 569.5 743.275 569.5 743.275 568.132 748.752 568.132 748.752 569.5ZM739.082 569.5 733.605 569.5 733.605 568.132 739.082 568.132 739.082 569.5ZM729.497 569.5 724.02 569.5 724.02 568.132 729.497 568.132 729.497 569.5ZM719.913 569.5 714.436 569.5 714.436 568.132 719.913 568.132 719.913 569.5ZM710.328 569.5 704.851 569.5 704.851 568.132 710.328 568.132 710.328 569.5ZM700.743 569.5 695.266 569.5 695.266 568.132 700.743 568.132 700.743 569.5ZM691.159 569.5 685.682 569.5 685.682 568.132 691.159 568.132 691.159 569.5ZM681.574 569.5 676.097 569.5 676.097 568.132 681.574 568.132 681.574 569.5ZM671.99 569.5 666.513 569.5 666.513 568.132 671.99 568.132 671.99 569.5ZM662.405 569.5 657.185 569.5 657.185 568.132 662.405 568.132 662.405 569.5Z" stroke="#000000" stroke-width="0.166719" stroke-linejoin="round" stroke-miterlimit="10" fill-rule="evenodd"/><rect x="854.5" y="91.5001" width="2" height="70" stroke="#000000" stroke-width="0.166719" stroke-linejoin="round" stroke-miterlimit="10"/><rect x="901" y="87" width="23" height="73" fill="#5B8AFB"/><rect x="901.5" y="91.5001" width="1" height="70" stroke="#000000" stroke-width="0.166719" stroke-linejoin="round" stroke-miterlimit="10"/><path d="M879.5 78.5001 879.5 84.0271 878.5 84.0271 878.5 78.5001 879.5 78.5001ZM879.5 88.2143 879.5 89.5542 878.5 89.5542 878.5 88.2143 879.5 88.2143ZM879.5 93.7414 879.5 99.2685 878.5 99.2685 878.5 93.7414 879.5 93.7414ZM879.5 103.288 879.5 104.796 878.5 104.796 878.5 103.288 879.5 103.288ZM879.5 108.815 879.5 114.342 878.5 114.342 878.5 108.815 879.5 108.815ZM879.5 118.53 879.5 119.87 878.5 119.87 878.5 118.53 879.5 118.53ZM879.5 123.889 879.5 129.416 878.5 129.416 878.5 123.889 879.5 123.889ZM879.5 133.604 879.5 134.943 878.5 134.943 878.5 133.604 879.5 133.604ZM879.5 139.131 879.5 144.658 878.5 144.658 878.5 139.131 879.5 139.131ZM879.5 148.677 879.5 150.017 878.5 150.017 878.5 148.677 879.5 148.677ZM879.5 154.204 879.5 159.732 878.5 159.732 878.5 154.204 879.5 154.204ZM879.5 163.751 879.5 165.259 878.5 165.259 878.5 163.751 879.5 163.751ZM879.5 169.446 879.5 174.973 878.5 174.973 878.5 169.446 879.5 169.446ZM879.5 178.993 879.5 180.5 878.5 180.5 878.5 178.993 879.5 178.993Z" stroke="#000000" stroke-width="0.166719" stroke-linejoin="round" stroke-miterlimit="10" fill-rule="evenodd"/><text font-family="Times New Roman,Times New Roman_MSFontService,sans-serif" font-style="italic" font-weight="400" font-size="15" transform="translate(939.833 553)">jet<tspan font-family="Symbol,Symbol_MSFontService,sans-serif" font-style="normal" font-size="24" x="-22.8333" y="-8">W</tspan><tspan font-style="normal" font-weight="700" font-size="15" x="-178" y="-266">B</tspan><tspan font-style="normal" font-weight="700" font-size="25" x="-193" y="-272">u</tspan><tspan font-style="normal" font-weight="700" font-size="25" x="-231.167" y="-272">u</tspan><tspan font-family="Symbol,Symbol_MSFontService,sans-serif" font-style="normal" font-size="25" x="-211.5" y="-273">=</tspan><tspan font-size="15" x="-45.3333" y="-107">sgs</tspan><tspan font-style="normal" font-weight="700" font-size="25" x="-60.6667" y="-113">u</tspan><tspan font-style="normal" font-weight="700" font-size="25" x="-98.3333" y="-113">u</tspan><tspan font-family="Symbol,Symbol_MSFontService,sans-serif" font-style="normal" font-size="25" x="-79" y="-114">=</tspan><tspan font-style="normal" font-weight="700" font-size="15" x="123" y="-70">B</tspan><tspan font-style="normal" font-weight="700" font-size="24" x="108" y="-76">u</tspan><tspan font-style="normal" font-weight="700" font-size="24" x="69.8334" y="-76">u</tspan><tspan font-family="Symbol,Symbol_MSFontService,sans-serif" font-style="normal" font-size="24" x="89.5" y="-78">=</tspan></text><path d="M891.5 350.5C891.5 348.85 892.85 347.5 894.5 347.5 894.5 347.5 894.5 347.5 894.5 347.5L894.5 347.5C896.225 347.5 897.5 348.85 897.5 350.5 897.5 350.5 897.5 350.5 897.5 350.5L897.5 350.5C897.5 352.225 896.225 353.5 894.5 353.5 894.5 353.5 894.5 353.5 894.5 353.5L894.5 353.5C892.85 353.5 891.5 352.225 891.5 350.5 891.5 350.5 891.5 350.5 891.5 350.5Z" stroke="#000000" stroke-width="0" stroke-linejoin="round" stroke-miterlimit="10" fill="#FF0000" fill-rule="evenodd"/><path d="M890.583 350.624C890.5 350.541 890.5 350.459 890.583 350.376L890.83 349.057C890.83 348.974 890.83 348.892 890.912 348.809L891.655 347.82C891.737 347.737 891.737 347.737 891.82 347.655L892.809 346.912C892.892 346.83 892.974 346.83 893.057 346.83L894.376 346.583C894.459 346.5 894.541 346.5 894.624 346.583L895.943 346.83C896.026 346.83 896.108 346.83 896.191 346.912L897.263 347.655C897.345 347.655 897.428 347.737 897.428 347.82L898.088 348.809C898.17 348.892 898.17 348.974 898.17 349.057L898.418 350.376C898.5 350.459 898.5 350.541 898.418 350.624L898.17 351.943C898.17 352.026 898.17 352.108 898.088 352.191L897.428 353.263C897.428 353.345 897.345 353.428 897.263 353.428L896.191 354.088C896.108 354.17 896.026 354.17 895.943 354.17L894.624 354.418C894.541 354.5 894.459 354.5 894.376 354.418L893.057 354.17C892.974 354.17 892.892 354.17 892.809 354.088L891.82 353.428C891.737 353.428 891.655 353.345 891.655 353.263L890.912 352.191C890.83 352.108 890.83 352.026 890.83 351.943L890.583 350.624ZM892.067 351.696 891.985 351.449 892.727 352.521 892.562 352.356 893.552 353.016 893.304 352.933 894.624 353.18 894.376 353.18 895.696 352.933 895.448 353.016 896.521 352.356 896.356 352.521 897.016 351.449 896.933 351.696 897.18 350.376 897.18 350.624 896.933 349.304 897.016 349.552 896.356 348.562 896.521 348.727 895.448 347.985 895.696 348.067 894.376 347.82 894.624 347.82 893.304 348.067 893.552 347.985 892.562 348.727 892.727 348.562 891.985 349.552 892.067 349.304 891.82 350.624 891.82 350.376 892.067 351.696Z" stroke="#000000" stroke-width="0.166719" stroke-linejoin="round" stroke-miterlimit="10" fill-rule="evenodd"/><text font-family="Times New Roman,Times New Roman_MSFontService,sans-serif" font-weight="700" font-size="25" transform="translate(916.667 371)">θ<tspan font-weight="400" font-size="16" x="155.833" y="-241">vel.</tspan><tspan font-weight="400" font-size="16" x="105" y="-241">particle</tspan><tspan font-weight="400" font-size="16" x="137.5" y="-265">vel.</tspan><tspan font-weight="400" font-size="16" x="104.667" y="-265">field</tspan><tspan font-family="Symbol,Symbol_MSFontService,sans-serif" font-weight="400" font-size="16" x="92.4999" y="-242">=</tspan><tspan font-family="Symbol,Symbol_MSFontService,sans-serif" font-weight="400" font-size="16" x="92.4999" y="-266">=</tspan><tspan font-size="16" x="80.4999" y="-242">θ</tspan><tspan font-size="16" x="79.6667" y="-265">u</tspan><tspan font-style="italic" font-weight="400" font-size="15" x="-5.16669" y="-46">drag</tspan><tspan font-size="24" x="-18.6667" y="-53">F</tspan></text><path d="M879.333 160.5 879.333 223.149 876.667 223.149 876.667 160.5 879.333 160.5ZM878 223.149 883.5 219.474 878 230.5 872.5 219.474 878 223.149Z" stroke="#000000" stroke-width="0.166719" stroke-linejoin="round" stroke-miterlimit="10" fill-rule="evenodd"/><path d="M878.5 161.439 823.833 161.439 823.833 158.562 878.5 158.562 878.5 161.439ZM823.833 159.915 827.333 165.5 816.5 159.915 827.333 154.5 823.833 159.915Z" stroke="#000000" stroke-width="0.166719" stroke-linejoin="round" stroke-miterlimit="10" fill-rule="evenodd"/><text font-family="Times New Roman,Times New Roman_MSFontService,sans-serif" font-style="italic" font-weight="400" font-size="23" transform="translate(893.334 227)">x<tspan font-size="21" x="-94" y="-72">r</tspan></text><path d="M892.448 349.297 867.823 286.033 870.618 284.945 895.243 348.209ZM865.571 288.519 866.5 278.5 873.958 285.255Z"/><path d="M896.898 353.956 916.054 403.169 913.258 404.258 894.102 355.044ZM918.305 400.683 917.376 410.703 909.918 403.948Z"/></g></svg>